<?xml version="1.0" standalone="no"?><!DOCTYPE svg PUBLIC "-//W3C//DTD SVG 1.1//EN" "http://www.w3.org/Graphics/SVG/1.1/DTD/svg11.dtd"><svg t="1563525473179" class="icon" viewBox="0 0 1024 1024" version="1.1" xmlns="http://www.w3.org/2000/svg" p-id="600" width="200" height="200" xmlns:xlink="http://www.w3.org/1999/xlink"><defs><style type="text/css"></style></defs><path d="M157.792604 293.037887h90.169962v90.150641a22.528 22.528 0 1 0 45.075321 0v-90.150641h90.150641a22.547321 22.547321 0 0 0 0-45.094642h-90.150641V157.792604a22.547321 22.547321 0 0 0-45.075321 0v90.150641H157.792604a22.547321 22.547321 0 0 0 0 45.094642zM866.207396 251.169811H640.811472c-12.461887 0-22.547321 8.655698-22.547321 19.320755s10.085434 19.320755 22.547321 19.320755h225.395924c12.461887 0 22.547321-8.655698 22.547321-19.320755s-10.085434-19.320755-22.547321-19.320755zM238.418113 753.876528l-76.162415 75.544151a23.30083 23.30083 0 0 0 0 33.154415 23.764528 23.764528 0 0 0 33.424906 0l76.162415-75.544151 73.496151 72.877887a23.764528 23.764528 0 0 0 33.424905 0 23.30083 23.30083 0 0 0 0-33.154415L305.267925 753.895849l74.24966-73.612075a23.30083 23.30083 0 0 0 0-33.154416 23.764528 23.764528 0 0 0-33.424906 0l-74.24966 73.612076-76.896604-76.27834a23.764528 23.764528 0 0 0-33.424906 0 23.30083 23.30083 0 0 0 0 33.154415l76.896604 76.27834zM934.950642 0H89.030038A89.049358 89.049358 0 0 0 0 89.049358V934.931321A89.049358 89.049358 0 0 0 89.030038 1024h845.920604A89.049358 89.049358 0 0 0 1024 934.950642V89.068679A89.049358 89.049358 0 0 0 934.950642 0zM502.339623 985.358491H83.079245A44.437736 44.437736 0 0 1 38.641509 940.920755V540.981132h463.698114v444.377359z m0-483.018868H38.641509V83.079245A44.437736 44.437736 0 0 1 83.079245 38.641509H502.339623v463.698114z m483.018868 438.581132a44.437736 44.437736 0 0 1-44.437736 44.437736H540.981132V540.981132h444.377359v399.939623zM985.358491 502.339623H540.981132V38.641509h399.939623A44.437736 44.437736 0 0 1 985.358491 83.079245V502.339623zM640.811472 830.792453h225.395924c12.461887 0 22.547321-8.655698 22.547321-19.320755s-10.085434-19.320755-22.547321-19.320755H640.811472c-12.461887 0-22.547321 8.655698-22.547321 19.320755s10.085434 19.320755 22.547321 19.320755z m0-115.924528h225.395924c12.461887 0 22.547321-8.655698 22.547321-19.320755s-10.085434-19.320755-22.547321-19.320755H640.811472c-12.461887 0-22.547321 8.655698-22.547321 19.320755s10.085434 19.320755 22.547321 19.320755z" p-id="601" fill="#515151"></path></svg>